<svg width="20" height="21" viewBox="0 0 20 21" fill="none" xmlns="http://www.w3.org/2000/svg">
<g id="icon_calendar">
<path id="Vector" fill-rule="evenodd" clip-rule="evenodd" d="M14.3385 9.17925L9.68518 13.8326C9.52891 13.9888 9.31699 14.0766 9.09602 14.0766C8.87505 14.0766 8.66312 13.9888 8.50685 13.8326L5.66018 10.9851C5.58281 10.9077 5.52144 10.8159 5.47957 10.7148C5.43769 10.6137 5.41614 10.5053 5.41614 10.3959C5.41614 10.2865 5.43769 10.1781 5.47957 10.0771C5.52144 9.97597 5.58281 9.88412 5.66018 9.80675C5.73755 9.72938 5.8294 9.668 5.93049 9.62613C6.03158 9.58426 6.13993 9.56271 6.24935 9.56271C6.35877 9.56271 6.46711 9.58426 6.5682 9.62613C6.66929 9.668 6.76114 9.72938 6.83852 9.80675L9.09602 12.0642L13.1602 8.00091C13.2376 7.92354 13.3294 7.86217 13.4305 7.8203C13.5316 7.77842 13.6399 7.75687 13.7493 7.75687C13.8588 7.75687 13.9671 7.77842 14.0682 7.8203C14.1693 7.86217 14.2611 7.92354 14.3385 8.00091C14.4159 8.07829 14.4773 8.17014 14.5191 8.27123C14.561 8.37232 14.5826 8.48066 14.5826 8.59008C14.5826 8.6995 14.561 8.80785 14.5191 8.90894C14.4773 9.01003 14.4159 9.10188 14.3385 9.17925ZM16.416 2.83341H15.0577V2.00008C15.0577 1.77907 14.9699 1.56711 14.8136 1.41083C14.6573 1.25455 14.4454 1.16675 14.2243 1.16675C14.0033 1.16675 13.7914 1.25455 13.6351 1.41083C13.4788 1.56711 13.391 1.77907 13.391 2.00008V2.83341H6.60768V2.00008C6.60768 1.77907 6.51988 1.56711 6.3636 1.41083C6.20732 1.25455 5.99536 1.16675 5.77435 1.16675C5.55334 1.16675 5.34137 1.25455 5.18509 1.41083C5.02881 1.56711 4.94102 1.77907 4.94102 2.00008V2.83341H3.58268C3.14065 2.83341 2.71673 3.00901 2.40417 3.32157C2.09161 3.63413 1.91602 4.05805 1.91602 4.50008V17.3334C1.91602 17.7754 2.09161 18.1994 2.40417 18.5119C2.71673 18.8245 3.14065 19.0001 3.58268 19.0001H16.416C16.858 19.0001 17.282 18.8245 17.5945 18.5119C17.9071 18.1994 18.0827 17.7754 18.0827 17.3334V4.50008C18.0827 4.05805 17.9071 3.63413 17.5945 3.32157C17.282 3.00901 16.858 2.83341 16.416 2.83341Z" fill="#94A3B8"/>
</g>
</svg>
