<svg width="58" height="59" viewBox="0 0 58 59" fill="none" xmlns="http://www.w3.org/2000/svg">
<path d="M55.2953 24.8673C56.5748 27.2867 57.3632 29.9335 57.6152 32.6564C57.8673 35.3793 57.5781 38.1251 56.7643 40.7366C55.9505 43.3482 54.6279 45.7745 52.8722 47.8767C51.1165 49.9789 48.9621 51.7159 46.5321 52.9884L39.8208 56.5105L38.1705 57.375C36.6543 58.1697 34.9751 58.6067 33.2624 58.6523C31.5498 58.698 29.8495 58.351 28.2928 57.6383L5.73263 48.0382C3.67368 47.162 2.63718 44.8477 3.35445 42.7282C4.04013 40.702 6.1165 39.4932 8.21703 39.8974L20.1384 42.1911L12.0661 26.913L0.745484 5.48788C-0.17876 3.73869 0.494054 1.57144 2.2464 0.653176C3.99044 -0.260729 6.14514 0.408327 7.0648 2.14934L18.3972 23.6027L21.5243 21.9644L17.468 14.282C16.5449 12.5337 17.2176 10.3682 18.9687 9.45061C20.7121 8.53705 22.866 9.20611 23.785 10.9467L27.8516 18.6488L30.9788 17.0105L28.2298 11.8063C27.3057 10.057 27.9787 7.88978 29.731 6.97153C31.4752 6.05758 33.63 6.72669 34.5498 8.46782L37.3099 13.693L40.4387 12.0405L39.0722 9.44641C38.1509 7.69765 38.8256 5.53319 40.5773 4.61754C42.3211 3.706 44.4737 4.37692 45.3908 6.11781L46.7679 8.73188L55.2936 24.8727L55.2953 24.8673Z" fill="white"/>
</svg>
