<svg width="81" height="80" viewBox="0 0 81 80" fill="none" xmlns="http://www.w3.org/2000/svg">
<path d="M79.2516 32.4438V78.6813C69.4141 71.1688 59.5724 63.6605 49.7266 56.1563C57.0641 50.2688 64.4057 44.373 71.7516 38.4688C74.2516 36.4563 76.7516 34.4563 79.2516 32.4438Z" fill="#447FFF"/>
<path d="M79.25 78.6813H1.75C12.25 71.1688 22.7458 63.6605 33.2375 56.1563C36.075 54.1313 38.9125 52.0938 41.75 50.0688C44.4125 52.0938 47.0625 54.1313 49.725 56.1563C59.5625 63.6688 69.4042 71.1772 79.25 78.6813Z" fill="#6498FF"/>
<path d="M71.75 23.8188H56.75C56.7625 19.2313 56.7625 14.6563 56.775 10.0688C61.7625 14.6563 66.7542 19.2397 71.75 23.8188Z" fill="#F1F5F9"/>
<path d="M79.25 32.4438C76.75 34.4563 74.25 36.4563 71.75 38.4688V26.2063C74.2375 28.2688 76.7625 30.3813 79.25 32.4438Z" fill="#3458C3"/>
<path d="M71.75 26.2063V38.4688C64.4125 44.3689 57.0708 50.2647 49.725 56.1563C47.0625 54.1314 44.4125 52.0939 41.75 50.0689C38.9125 52.0939 36.075 54.1314 33.2375 56.1563C25.65 50.4563 18.0708 44.748 10.5 39.0314V10.0688H56.775C56.7625 14.6563 56.7625 19.2313 56.75 23.8188H71.75V26.2063Z" fill="#DDE5EF"/>
<path d="M52.2875 10.0688H30.5C34.25 7.15635 38 4.23968 41.75 1.31885C45.2625 4.23135 48.775 7.14802 52.2875 10.0688ZM10.5 34.8688V39.0313C7.5875 36.8313 4.67083 34.6355 1.75 32.4438C4.6625 30.1688 7.57917 27.898 10.5 25.6313V34.8688Z" fill="#3458C3"/>
<path d="M33.2375 56.1563C22.7375 63.6688 12.2417 71.1772 1.75 78.6813V32.4438C4.6625 34.6438 7.57917 36.8397 10.5 39.0313C18.075 44.7438 25.6542 50.4522 33.2375 56.1563Z" fill="#447FFF"/>
<path d="M62.7974 42.5688H19.25C18.9185 42.5688 18.6005 42.4372 18.3661 42.2027C18.1317 41.9683 18 41.6504 18 41.3188C18 40.9873 18.1317 40.6694 18.3661 40.435C18.6005 40.2005 18.9185 40.0688 19.25 40.0688H62.7974C63.1289 40.0688 63.4468 40.2005 63.6812 40.435C63.9157 40.6694 64.0474 40.9873 64.0474 41.3188C64.0474 41.6504 63.9157 41.9683 63.6812 42.2027C63.4468 42.4372 63.1289 42.5688 62.7974 42.5688ZM63 35.0688H19.25C18.9185 35.0688 18.6005 34.9372 18.3661 34.7027C18.1317 34.4683 18 34.1504 18 33.8188C18 33.4873 18.1317 33.1694 18.3661 32.935C18.6005 32.7005 18.9185 32.5688 19.25 32.5688H63C63.3315 32.5688 63.6495 32.7005 63.8839 32.935C64.1183 33.1694 64.25 33.4873 64.25 33.8188C64.25 34.1504 64.1183 34.4683 63.8839 34.7027C63.6495 34.9372 63.3315 35.0688 63 35.0688ZM49.2488 27.5688H19.25C18.9185 27.5688 18.6005 27.4372 18.3661 27.2027C18.1317 26.9683 18 26.6504 18 26.3188C18 25.9873 18.1317 25.6694 18.3661 25.435C18.6005 25.2005 18.9185 25.0688 19.25 25.0688H49.2488C49.5803 25.0688 49.8982 25.2005 50.1326 25.435C50.3671 25.6694 50.4987 25.9873 50.4987 26.3188C50.4987 26.6504 50.3671 26.9683 50.1326 27.2027C49.8982 27.4372 49.5803 27.5688 49.2488 27.5688Z" fill="#BFCBDA"/>
<path d="M2.19235 78.3649C12.5446 70.9582 22.893 63.5554 33.2375 56.1563C25.65 50.4563 18.0708 44.748 10.5 39.0313C7.5875 36.8313 4.67083 34.6355 1.75 32.4438V77.4314C1.75181 77.6097 1.7923 77.7855 1.86867 77.9467C1.94504 78.1079 2.05548 78.2505 2.19235 78.3649Z" fill="#447FFF"/>
<path d="M49.728 56.1563C47.0655 54.1313 44.4155 52.0938 41.753 50.0688C38.9155 52.0938 36.078 54.1313 33.2405 56.1563C22.8879 63.5633 12.5395 70.9662 2.19531 78.3649C2.41721 78.5649 2.70427 78.6773 3.00296 78.6813H78.003C78.308 78.6779 78.6009 78.5617 78.8253 78.355C69.13 70.9516 59.4309 63.5521 49.728 56.1563Z" fill="#6498FF"/>
<path d="M49.7266 56.1563C59.4216 63.5601 69.1207 70.9596 78.8239 78.3551C78.9567 78.2404 79.0636 78.0987 79.1374 77.9394C79.2111 77.7801 79.2501 77.6069 79.2516 77.4313V32.4438C76.7516 34.4563 74.2516 36.4563 71.7516 38.4688C64.4141 44.3688 57.0724 50.2647 49.7266 56.1563Z" fill="#447FFF"/>
</svg>
