<svg width="800" height="800" viewBox="0 0 800 800" fill="none" xmlns="http://www.w3.org/2000/svg">
<g clip-path="url(#clip0_732_940)">
<path d="M640.914 106.123H159.086C71.3633 106.123 0 177.714 0 265.698V534.286C0 622.286 71.3633 693.861 159.086 693.861H640.914C728.637 693.861 800 622.269 800 534.286V265.698C800 177.714 728.637 106.123 640.914 106.123Z" fill="#FF0101"/>
<path d="M544.653 394.09L318.449 261.6C313.42 258.661 307.167 258.612 302.09 261.518C297.012 264.425 293.877 269.829 293.877 275.69V540.653C293.877 546.498 297.012 551.918 302.073 554.825C304.588 556.261 307.396 556.98 310.204 556.98C313.061 556.98 315.902 556.229 318.449 554.743L544.653 422.286C549.649 419.363 552.735 413.992 552.735 408.196C552.735 402.4 549.665 397.012 544.653 394.09Z" fill="white"/>
</g>
<defs>
<clipPath id="clip0_732_940">
<rect width="800" height="800" fill="white"/>
</clipPath>
</defs>
</svg>
